HIERARCHY
ROOT Hips
{
  OFFSET 40.9192 92.6879 18.85
  CHANNELS 6 Xposition Yposition Zposition Zrotation Xrotation Yrotation
  JOINT LeftUpLeg
  {
    OFFSET 8.64259 1.95398 -2.38835
    CHANNELS 3 Zrotation Xrotation Yrotation
    JOINT LeftLeg
    {
      OFFSET 43.7702 0 0
      CHANNELS 3 Zrotation Xrotation Yrotation
      JOINT LeftFoot
      {
        OFFSET 40.6238 0 0
        CHANNELS 3 Zrotation Xrotation Yrotation
        JOINT LeftToeBase
        {
          OFFSET 12.7242 0 0
          CHANNELS 3 Zrotation Xrotation Yrotation
          End Site
          {
            OFFSET 0 0 0
          }
        }
      }
    }
  }
  JOINT RightUpLeg
  {
    OFFSET -8.2249 1.95398 -2.59336
    CHANNELS 3 Zrotation Xrotation Yrotation
    JOINT RightLeg
    {
      OFFSET 43.5653 0 0
      CHANNELS 3 Zrotation Xrotation Yrotation
      JOINT RightFoot
      {
        OFFSET 40.6238 0 0
        CHANNELS 3 Zrotation Xrotation Yrotation
        JOINT RightToeBase
        {
          OFFSET 12.7242 0 0
          CHANNELS 3 Zrotation Xrotation Yrotation
          End Site
          {
            OFFSET 0 0 0
          }
        }
      }
    }
  }
  JOINT Spine
  {
    OFFSET 0.165834 0.87714 6.61349
    CHANNELS 3 Zrotation Xrotation Yrotation
    JOINT Spine1
    {
      OFFSET 7.38963 1.71661e-005 0
      CHANNELS 3 Zrotation Xrotation Yrotation
      JOINT Spine2
      {
        OFFSET 11.9445 1.14441e-005 0
        CHANNELS 3 Zrotation Xrotation Yrotation
        JOINT Spine3
        {
          OFFSET 14.7254 4.19617e-005 0
          CHANNELS 3 Zrotation Xrotation Yrotation
          JOINT Spine4
          {
            OFFSET 10.9679 0 0
            CHANNELS 3 Zrotation Xrotation Yrotation
            JOINT RightShoulder
            {
              OFFSET 2.46616 -1.6653 3.69651
              CHANNELS 3 Zrotation Xrotation Yrotation
              JOINT RightArm
              {
                OFFSET 13.0012 0 0
                CHANNELS 3 Zrotation Xrotation Yrotation
                JOINT RightForeArm
                {
                  OFFSET 28.7848 1.52588e-005 0
                  CHANNELS 3 Zrotation Xrotation Yrotation
                  JOINT RightHand
                  {
                    OFFSET 26.5688 1.52588e-005 0
                    CHANNELS 3 Zrotation Xrotation Yrotation
                    End Site
                    {
                      OFFSET 0 0 0
                    }
                  }
                }
              }
            }
            JOINT LeftShoulder
            {
              OFFSET 2.38034 -1.29275 -3.7523
              CHANNELS 3 Zrotation Xrotation Yrotation
              JOINT LeftArm
              {
                OFFSET 16.3182 6.10351e-005 0
                CHANNELS 3 Zrotation Xrotation Yrotation
                JOINT LeftForeArm
                {
                  OFFSET 27.0901 0 0
                  CHANNELS 3 Zrotation Xrotation Yrotation
                  JOINT LeftHand
                  {
                    OFFSET 24.5451 1.52588e-005 0
                    CHANNELS 3 Zrotation Xrotation Yrotation
                    End Site
                    {
                      OFFSET 0 0 0
                    }
                  }
                }
              }
            }
            JOINT Neck
            {
              OFFSET 5.0226 -0.0266342 0
              CHANNELS 3 Zrotation Xrotation Yrotation
              JOINT Head
              {
                OFFSET 6.69363 2.86102e-005 0
                CHANNELS 3 Zrotation Xrotation Yrotation
                End Site
                {
                  OFFSET 0 0 0
                }
              }
            }
          }
        }
      }
    }
  }
}
MOTION
Frames:	7
Frame Time:	0.0416667
13.9185 91.17 14.3115 83.3874 -52.9628 87.0894 -164.858 23.024 95.1014 -96.5268 7.86742 0.743738 47.9823 -2.70986 0.961551 35.8812 5.58084 10.6215 174.162 27.7624 99.0088 -39.741 -4.14671 3.51149 74.9772 -6.25851 -3.05386 22.4603 0.0841499 -3.29865 -0.847662 9.68777 -89.6582 7.50292 -1.54437 0.750891 -4.1674 -1.50983 0.818131 -26.7094 -1.69862 0.251921 -6.6967 -1.69862 0.251921 89.7059 -42.9378 -103.085 32.4439 -20.3682 37.3892 3.58541 -1.11807 -95.8333 2.64427 -0.0806791 -10.9121 -97.6754 -43.4641 65.0478 17.6798 52.6812 -49.3422 16.4159 -13.1232 -89.3814 6.36418 -0.120726 -5.00621 0.216783 7.32715 -3.35885 19.626 8.90781 6.03042 
19.6806 90.9771 21.0907 80.115 -52.12 85.7466 -164.368 35.6265 96.0059 -96.7108 7.74047 0.907069 50.1855 -1.50401 0.881964 37.5972 7.24962 12.3887 176.647 24.5906 100.929 -41.2238 -0.163631 1.62273 79.6369 -8.71903 -3.81936 26.8639 0.302705 -4.93775 -0.339896 9.44833 -89.7592 7.97823 -0.573144 0.507481 -3.69272 -0.550254 0.532201 -26.2284 -0.699174 0.311759 -6.21576 -0.699176 0.311757 89.0689 -42.7074 -104.213 32.4937 -20.6961 38.8897 3.20523 -0.463957 -96.0129 3.08619 -0.112642 -11.0879 -98.6929 -44.1305 63.7295 21.1122 52.8021 -50.8058 14.3695 -12.7842 -88.6094 7.63083 -0.229112 -5.94698 0.930612 5.73314 -4.22597 19.4688 7.30313 5.31866 
26.1405 91.8668 28.288 78.3349 -50.5335 84.3816 -165.063 43.3458 95.1414 -89.1955 9.14165 0.289951 54.6386 -0.329352 1.5121 38.3237 7.94938 12.2782 177.95 18.2803 100.518 -38.4082 1.01498 0.476988 78.9209 -9.54012 -4.22599 33.9704 0.351906 -4.86848 -0.233493 9.35457 -89.7294 8.16524 -0.347166 0.554901 -3.50578 -0.3224 0.569621 -26.0407 -0.497884 0.424914 -6.02804 -0.497894 0.424894 88.6707 -41.2663 -105.317 32.4517 -22.3501 37.2151 3.24756 -1.21091 -93.8475 1.52304 -0.0533648 -11.3923 -99.5026 -44.5587 62.6542 19.0909 53.1299 -48.0403 13.7765 -12.6412 -89.046 7.59555 -0.110723 -4.60141 2.88526 4.79189 -3.15733 18.4941 5.89435 3.62311 
32.8545 93.0748 36.0511 80.2427 -47.8059 84.0426 -166.33 45.3361 92.9537 -75.6705 11.348 -1.01546 56.2574 -1.42535 1.20872 39.6472 9.32778 13.8388 177.138 10.2079 97.6925 -36.6355 -1.41476 0.0374565 73.3945 -7.34938 -3.64797 41.2774 0.431438 -4.25838 -0.376607 9.40601 -89.4704 8.06285 -0.519658 1.07583 -3.60845 -0.471801 1.09764 -26.1418 -0.818964 0.869941 -6.12919 -0.818936 0.869944 89.0881 -40.4645 -104.854 33.7362 -22.181 36.7957 4.27096 -1.12735 -93.7248 2.47963 -0.08579 -11.2326 -98.8606 -44.0935 63.4553 17.7844 53.3033 -47.1974 12.4333 -12.361 -88.9203 7.85878 -0.211964 -5.73064 3.43363 3.73471 -2.42784 17.3024 4.37194 1.818 
40.0714 94.6891 44.0434 81.0932 -44.2153 83.587 -167.656 45.0427 90.9989 -56.6521 10.8918 -2.74611 51.896 -5.83322 -2.66652 38.9895 8.7152 14.5104 175.096 2.76289 94.9415 -32.8515 -5.25562 0.544219 62.5798 -2.71757 -1.52205 45.6375 0.612651 -2.83857 -0.482481 9.24269 -89.3184 8.39058 -0.662304 1.38757 -3.28098 -0.600567 1.41536 -25.8132 -1.04868 1.12441 -5.80059 -1.04867 1.12441 89.5797 -41.6879 -103.654 34.4525 -22.033 38.6661 4.72562 -1.21559 -93.669 2.79243 -0.111707 -11.6748 -98.0281 -43.8704 64.6549 17.7572 54.1576 -48.392 11.0603 -12.0925 -88.6521 7.80891 -0.128412 -4.66714 1.94875 2.41441 -2.55469 17.9882 2.85764 0.73234 
47.971 96.1817 52.0025 78.4226 -43.257 81.7555 -168.194 44.2276 90.3672 -34.421 12.1396 -5.00153 44.7082 -10.9063 -8.05422 35.8184 5.50778 18.1821 174.652 -2.04287 93.4685 -27.5788 -10.1977 0.000697667 50.5841 1.62894 1.46217 42.5027 0.49657 -3.6123 -0.319996 8.84754 -89.2494 9.17844 -0.302121 1.50835 -2.49336 -0.235462 1.52019 -25.0229 -0.741446 1.34787 -5.0103 -0.741432 1.34788 89.7476 -42.6557 -103.094 33.9361 -22.5995 40.1026 4.94532 -1.16694 -94.5187 3.46817 -0.13603 -11.6071 -98.3269 -44.4752 64.4255 17.4812 54.2677 -47.9275 12.9351 -12.249 -88.387 4.82399 -0.235235 -6.81375 1.2639 1.62518 -3.20283 17.8839 2.02874 0.124456 
56.078 97.3414 59.7975 74.9707 -44.1111 79.5634 -168.779 42.9239 90.6119 -15.0946 13.915 -6.84668 41.2326 -13.1077 -12.2832 38.8063 8.30457 9.95743 175.323 -4.32564 92.3546 -28.232 -12.8604 -1.6174 47.4187 2.73291 2.46295 38.6086 0.360116 -6.07927 -0.103306 8.45939 -89.2107 9.95141 0.152736 1.55391 -1.72044 0.220986 1.54567 -24.2483 -0.321249 1.528 -4.23568 -0.321281 1.52798 89.5794 -41.8912 -103.594 33.2653 -23.4698 40.2942 5.84027 -1.03834 -94.7579 3.83866 -0.13675 -11.4757 -98.8255 -45.0617 63.8871 17.5404 53.9181 -47.6806 10.756 -12.1644 -88.943 6.15219 -0.0683937 -4.07304 1.90563 1.67623 -2.80152 15.892 1.87395 -0.779485 
